<?xml version="1.0" encoding="UTF-8" standalone="no"?>
<svg
   xmlns:dc="http://purl.org/dc/elements/1.1/"
   xmlns:cc="http://creativecommons.org/ns#"
   xmlns:rdf="http://www.w3.org/1999/02/22-rdf-syntax-ns#"
   xmlns:svg="http://www.w3.org/2000/svg"
   xmlns="http://www.w3.org/2000/svg"
   xmlns:sodipodi="http://sodipodi.sourceforge.net/DTD/sodipodi-0.dtd"
   xmlns:inkscape="http://www.inkscape.org/namespaces/inkscape"
   version="1.0"
   x="0px"
   y="0px"
   width="85.039001"
   height="100.035"
   viewBox="0 0 85.039 100.035"
   overflow="visible"
   enable-background="new 0 0 85.039 100"
   xml:space="preserve"
   id="svg3007"
   inkscape:version="0.48.3.1 r9886"
   sodipodi:docname="calculator.svg"
   style="overflow:visible"><metadata
   id="metadata3015"><rdf:RDF><cc:Work
       rdf:about=""><dc:format>image/svg+xml</dc:format><dc:type
         rdf:resource="http://purl.org/dc/dcmitype/StillImage" /></cc:Work></rdf:RDF></metadata><defs
   id="defs3013" /><sodipodi:namedview
   pagecolor="#ffffff"
   bordercolor="#666666"
   borderopacity="1"
   objecttolerance="10"
   gridtolerance="10"
   guidetolerance="10"
   inkscape:pageopacity="0"
   inkscape:pageshadow="2"
   inkscape:window-width="640"
   inkscape:window-height="480"
   id="namedview3011"
   showgrid="false"
   inkscape:zoom="2.36"
   inkscape:cx="42.5195"
   inkscape:cy="50.035"
   inkscape:window-x="0"
   inkscape:window-y="0"
   inkscape:window-maximized="0"
   inkscape:current-layer="svg3007" />
    <path
   d="m 71.017999,0 h -57.001 C 6.2749993,0 -7.3242187e-7,6.27 -7.3242187e-7,14.017 v 71.996 0.005 c 0,7.741 6.27500003242187,14.017 14.01699973242187,14.017 h 57.001 c 7.747,0 14.021,-6.275 14.021,-14.017 V 86.013 14.017 C 85.038999,6.27 78.764999,0 71.017999,0 z m -44.473,85.539 c 0,1.918 -1.558,3.477 -3.481,3.477 h -9.864 c -1.923,0 -3.4809997,-1.559 -3.4809997,-3.477 v -3.486 c 0,-1.918 1.5579997,-3.476 3.4809997,-3.476 h 9.864 c 1.923,0 3.481,1.558 3.481,3.476 v 3.486 z m 0,-18.212 c 0,1.923 -1.558,3.481 -3.481,3.481 h -9.864 c -1.923,0 -3.4809997,-1.559 -3.4809997,-3.481 v -3.481 c 0,-1.918 1.5579997,-3.481 3.4809997,-3.481 h 9.864 c 1.923,0 3.481,1.563 3.481,3.481 v 3.481 z m 0,-18.213 c 0,1.923 -1.558,3.487 -3.481,3.487 h -9.864 c -1.923,0 -3.4809997,-1.563 -3.4809997,-3.487 v -3.476 c 0,-1.923 1.5579997,-3.481 3.4809997,-3.481 h 9.864 c 1.923,0 3.481,1.558 3.481,3.481 v 3.476 z m 24.154,36.425 c 0,1.918 -1.563,3.477 -3.481,3.477 h -9.858 c -1.929,0 -3.487,-1.559 -3.487,-3.477 v -3.486 c 0,-1.918 1.558,-3.476 3.487,-3.476 h 9.858 c 1.918,0 3.481,1.558 3.481,3.476 v 3.486 z m 0,-18.212 c 0,1.923 -1.563,3.481 -3.481,3.481 h -9.858 c -1.929,0 -3.487,-1.559 -3.487,-3.481 v -3.481 c 0,-1.918 1.558,-3.481 3.487,-3.481 h 9.858 c 1.918,0 3.481,1.563 3.481,3.481 v 3.481 z m 0,-18.213 c 0,1.923 -1.563,3.487 -3.481,3.487 h -9.858 c -1.929,0 -3.487,-1.563 -3.487,-3.487 v -3.476 c 0,-1.923 1.558,-3.481 3.487,-3.481 h 9.858 c 1.918,0 3.481,1.558 3.481,3.481 v 3.476 z m 24.155,36.425 c 0,1.918 -1.559,3.477 -3.481,3.477 h -9.858 c -1.924,0 -3.481,-1.559 -3.481,-3.477 v -3.486 c 0,-1.918 1.558,-3.476 3.481,-3.476 h 9.858 c 1.923,0 3.481,1.558 3.481,3.476 v 3.486 z m 0,-18.212 c 0,1.923 -1.559,3.481 -3.481,3.481 h -9.858 c -1.924,0 -3.481,-1.559 -3.481,-3.481 v -3.481 c 0,-1.918 1.558,-3.481 3.481,-3.481 h 9.858 c 1.923,0 3.481,1.563 3.481,3.481 v 3.481 z m 0,-18.213 c 0,1.923 -1.559,3.487 -3.481,3.487 h -9.858 c -1.924,0 -3.481,-1.563 -3.481,-3.487 v -3.476 c 0,-1.923 1.558,-3.481 3.481,-3.481 h 9.858 c 1.923,0 3.481,1.558 3.481,3.481 v 3.476 z m 0.128,-18.851 c 0,1.923 -1.559,3.481 -3.481,3.481 h -58.301 c -1.923,0 -3.4809997,-1.558 -3.4809997,-3.481 V 14.892 c 0,-1.923 1.5579997,-3.481 3.4809997,-3.481 h 58.301 c 1.923,0 3.481,1.558 3.481,3.481 v 15.371 z"
   id="path3009"
   inkscape:connector-curvature="0" />
</svg>