<?xml version="1.0" encoding="UTF-8" standalone="no"?>
<svg
   xmlns:dc="http://purl.org/dc/elements/1.1/"
   xmlns:cc="http://creativecommons.org/ns#"
   xmlns:rdf="http://www.w3.org/1999/02/22-rdf-syntax-ns#"
   xmlns:svg="http://www.w3.org/2000/svg"
   xmlns="http://www.w3.org/2000/svg"
   xmlns:sodipodi="http://sodipodi.sourceforge.net/DTD/sodipodi-0.dtd"
   xmlns:inkscape="http://www.inkscape.org/namespaces/inkscape"
   version="1.1"
   x="0px"
   y="0px"
   width="100px"
   height="100px"
   viewBox="0 0 100 100"
   enable-background="new 0 0 100 100"
   xml:space="preserve"
   id="svg2"
   inkscape:version="0.48.3.1 r9886"
   sodipodi:docname="point_watcher2.svg"><metadata
   id="metadata47"><rdf:RDF><cc:Work
       rdf:about=""><dc:format>image/svg+xml</dc:format><dc:type
         rdf:resource="http://purl.org/dc/dcmitype/StillImage" /><dc:title /></cc:Work></rdf:RDF></metadata><defs
   id="defs45" /><sodipodi:namedview
   pagecolor="#ffffff"
   bordercolor="#666666"
   borderopacity="1"
   objecttolerance="10"
   gridtolerance="10"
   guidetolerance="10"
   inkscape:pageopacity="0"
   inkscape:pageshadow="2"
   inkscape:window-width="1440"
   inkscape:window-height="845"
   id="namedview43"
   showgrid="false"
   inkscape:zoom="4.72"
   inkscape:cx="31.388566"
   inkscape:cy="48.52389"
   inkscape:window-x="-2"
   inkscape:window-y="-3"
   inkscape:window-maximized="1"
   inkscape:current-layer="Your_Icon" />
<g
   id="Captions">
</g>
<g
   id="Your_Icon"
   style="fill:#00000f;fill-opacity:1">
	<path
   d="m 29.888359,47.120689 c -0.866137,0 -1.60781,-0.653422 -1.694765,-1.529737 -0.09207,-0.930554 0.591633,-1.761104 1.529381,-1.852634 l 19.854673,-1.948402 c 0.03836,-0.0051 0.07672,-0.0068 0.115087,-0.0085 0.651308,-0.03136 2.194329,-0.27798 2.158524,-1.885687 -0.01279,-0.617827 -0.227617,-0.885637 -0.387886,-1.034797 -0.601011,-0.557655 -1.825198,-0.633929 -2.103112,-0.612742 l -29.790535,0.14749 c -0.0026,0 -0.006,0 -0.0085,0 -0.937747,0 -1.700733,-0.753427 -1.704995,-1.686524 -0.0043,-0.936488 0.755313,-1.69839 1.69647,-1.703475 l 29.715515,-0.14577 c 0.213125,-0.01356 2.785963,-0.08899 4.521648,1.522957 0.934338,0.865297 1.441574,2.056034 1.470559,3.440001 0.0844,3.762052 -3.159357,5.250261 -5.399721,5.345181 l -19.802696,1.944164 c -0.05712,0.0051 -0.113382,0.0085 -0.169647,0.0085 z"
   id="path6"
   style="fill:#00000f;fill-opacity:1"
   inkscape:connector-curvature="0" />
	<g
   id="g8"
   style="fill:#00000f;fill-opacity:1">
		
		
	</g>
	<g
   id="g18"
   style="fill:#00000f;fill-opacity:1"
   transform="matrix(0.85249777,0,0,0.84749971,-6.6590725,0.50820521)">
		<path
   d="m 20.735,81.311 c -1.456,0 -3.132,-0.334 -5.041,-1.184 -6.52,-2.926 -7.625,-9.234 -7.668,-9.502 -0.179,-1.09 0.56,-2.119 1.65,-2.297 1.085,-0.178 2.118,0.559 2.297,1.648 0.03,0.17 0.846,4.477 5.354,6.498 3.526,1.572 5.339,0.635 6.397,-0.207 0.864,-0.689 2.122,-0.543 2.81,0.32 0.688,0.865 0.544,2.123 -0.321,2.811 -1.243,0.989 -3.054,1.913 -5.478,1.913 z"
   id="path20"
   style="fill:#00000f;fill-opacity:1"
   inkscape:connector-curvature="0" />
	</g>
	<g
   id="g22"
   style="fill:#00000f;fill-opacity:1"
   transform="matrix(0.85249777,0,0,0.84749971,-6.6590725,0.50820521)">
		<path
   d="m 24.039,64.719 c -0.946,0 -1.787,-0.674 -1.964,-1.639 -0.2,-1.086 0.519,-2.129 1.604,-2.328 0.15,-0.031 4.088,-0.881 5.806,-5.51 2.092,-5.604 -2.031,-10.941 -2.073,-10.994 -0.579,-0.736 -0.574,-1.781 0.018,-2.508 1.892,-2.316 2.259,-4.533 2.235,-5.984 -0.012,-0.525 -0.25,-3.346 -3.776,-6.225 -1.687,-1.383 -2.381,-1.521 -3.137,-1.25 0.148,0.549 0.514,1.402 0.755,1.965 0.587,1.369 1.193,2.785 1.155,4.109 -0.062,2.08 -0.191,6.404 -4.005,11.637 -3.713,5.1 -8.306,6.455 -8.5,6.51 -1.063,0.301 -2.169,-0.314 -2.471,-1.375 -0.302,-1.059 0.309,-2.16 1.363,-2.469 0.086,-0.025 3.534,-1.119 6.375,-5.021 3.086,-4.232 3.183,-7.467 3.24,-9.398 0.013,-0.441 -0.497,-1.629 -0.833,-2.416 -0.87,-2.031 -2.326,-5.428 0.631,-6.896 3.173,-1.562 5.477,-0.527 7.96,1.51 4.759,3.887 5.215,8.057 5.242,9.244 0.026,1.537 -0.257,4.375 -2.237,7.371 1.462,2.377 3.996,7.723 1.806,13.588 -2.528,6.812 -8.574,8 -8.83,8.047 -0.122,0.02 -0.244,0.032 -0.364,0.032 z"
   id="path24"
   style="fill:#00000f;fill-opacity:1"
   inkscape:connector-curvature="0" />
	</g>
	<g
   id="g26"
   style="fill:#00000f;fill-opacity:1"
   transform="matrix(0.85249777,0,0,0.84749971,-6.6590725,0.50820521)">
		<path
   d="m 45.416,70.979 c -3.97,0 -8.533,-1.039 -10.274,-2.963 -1.49,-1.648 -2.16,-5.039 -0.783,-7.461 0.777,-1.365 2.835,-3.502 7.901,-2.486 1.083,0.219 1.784,1.273 1.566,2.355 -0.218,1.082 -1.267,1.781 -2.355,1.566 -0.896,-0.18 -3.046,-0.488 -3.635,0.543 -0.504,0.887 -0.069,2.422 0.272,2.799 1.075,1.188 7.982,2.342 10.797,1.178 1.102,-0.451 2.489,-1.293 2.85,-2.73 0.46,-1.832 -0.679,-4.48 -3.294,-7.66 -0.702,-0.854 -0.579,-2.113 0.274,-2.816 0.854,-0.699 2.113,-0.578 2.815,0.275 3.504,4.26 4.878,8.02 4.084,11.176 -0.6,2.385 -2.448,4.322 -5.207,5.455 -1.258,0.519 -3.063,0.769 -5.011,0.769 z"
   id="path28"
   style="fill:#00000f;fill-opacity:1"
   inkscape:connector-curvature="0" />
	</g>
	<g
   id="g30"
   style="fill:#00000f;fill-opacity:1"
   transform="matrix(0.85249777,0,0,0.84749971,-6.6590725,0.50820521)">
		<path
   d="m 38.603,77.508 c -3.449,0 -7.14,-1.105 -8.808,-2.947 -1.517,-1.682 -2.246,-5.439 -0.872,-8.15 0.704,-1.389 2.555,-3.654 7.051,-3.193 1.099,0.111 1.899,1.092 1.788,2.191 -0.111,1.099 -1.101,1.912 -2.192,1.787 -2.433,-0.244 -2.917,0.705 -3.077,1.02 -0.663,1.299 -0.081,3.271 0.269,3.664 1.242,1.373 6.17,2.234 8.778,1.16 1.003,-0.412 1.713,-2.352 1.896,-4.053 0.118,-1.098 1.101,-1.895 2.203,-1.773 1.098,0.117 1.893,1.104 1.775,2.201 -0.146,1.359 -0.892,5.9 -4.35,7.324 -1.278,0.525 -2.843,0.769 -4.461,0.769 z"
   id="path32"
   style="fill:#00000f;fill-opacity:1"
   inkscape:connector-curvature="0" />
	</g>
	<g
   id="g34"
   style="fill:#00000f;fill-opacity:1"
   transform="matrix(0.85249777,0,0,0.84749971,-6.6590725,0.50820521)">
		<path
   d="m 31.938,82.521 c -2.889,0 -5.951,-0.939 -7.388,-2.52 -1.312,-1.451 -1.945,-4.693 -0.76,-7.029 0.615,-1.213 2.225,-3.186 6.089,-2.793 1.099,0.113 1.898,1.096 1.785,2.195 -0.113,1.098 -1.096,1.908 -2.194,1.783 -1.108,-0.111 -1.81,0.082 -2.088,0.578 -0.449,0.803 -0.13,2.234 0.145,2.594 0.813,0.895 4.653,1.666 6.683,0.83 0.584,-0.238 1.154,-1.541 1.299,-2.965 0.112,-1.098 1.088,-1.912 2.193,-1.785 1.099,0.111 1.898,1.094 1.787,2.191 -0.118,1.156 -0.737,5.02 -3.76,6.26 -1.1,0.452 -2.426,0.661 -3.791,0.661 z"
   id="path36"
   style="fill:#00000f;fill-opacity:1"
   inkscape:connector-curvature="0" />
	</g>
	<g
   id="g38"
   style="fill:#00000f;fill-opacity:1"
   transform="matrix(0.85249777,0,0,0.84749971,-7.2009143,0.23887261)">
		<path
   stroke-miterlimit="10"
   d="M 52.4,59.086"
   id="path40"
   style="fill:#00000f;fill-opacity:1;stroke:#d9272e;stroke-width:4;stroke-linecap:round;stroke-linejoin:round;stroke-miterlimit:10"
   inkscape:connector-curvature="0" />
	</g>
<path
   inkscape:connector-curvature="0"
   d="M 89.065189,32.116839 V 13.463983 c 0,-2.228688 -1.909741,-4.0360168 -4.266623,-4.0360168 H 69.438721 c -2.356882,0 -4.266622,1.8073288 -4.266622,4.0360168 v 18.652856 c -6.151617,3.73493 -10.239896,10.25794 -10.239896,17.671297 0,7.413355 4.088279,13.937173 10.239896,17.671296 v 18.652855 c 0,2.229496 1.90974,4.036016 4.266622,4.036016 h 15.359845 c 2.356882,0 4.266623,-1.80652 4.266623,-4.036016 V 67.459432 c 6.151616,-3.734123 10.239894,-10.257941 10.239894,-17.671296 0,-7.413357 -4.088278,-13.936367 -10.239894,-17.671297 z m 0,31.359851 c -3.248607,2.54027 -7.411978,4.06992 -11.946545,4.06992 -4.534567,0 -8.697938,-1.52965 -11.946545,-4.06992 -4.166784,-3.259487 -6.826598,-8.186657 -6.826598,-13.688554 0,-5.502706 2.659814,-10.428261 6.826598,-13.688555 3.248607,-2.541077 7.411978,-4.06992 11.946545,-4.06992 4.534567,0 8.697938,1.528843 11.946545,4.06992 4.166784,3.260294 6.826597,8.185849 6.826597,13.688555 0,5.501897 -2.659813,10.429067 -6.826597,13.688554 z"
   id="path3" /><path
   inkscape:connector-curvature="0"
   d="m 90.771838,41.716102 c 0,-0.891153 -0.764579,-1.614408 -1.706649,-1.614408 -0.370343,0 -0.709966,0.114623 -0.989857,0.30351 l -0.0017,-0.0024 -10.838077,7.323757 -6.662758,-5.601992 -0.0042,0.0049 c -0.301224,-0.254268 -0.694607,-0.413288 -1.129803,-0.413288 -0.942069,0 -1.706648,0.723254 -1.706648,1.614407 0,0.479478 0.22613,0.90649 0.576847,1.201926 l -0.0042,0.0049 7.679922,6.457628 0.0042,-0.0049 c 0.301224,0.253461 0.694606,0.412481 1.129801,0.412481 0.370344,0 0.709966,-0.114623 0.989857,-0.303509 l 0.0017,0.0024 11.946545,-8.072034 -0.0017,-0.0024 c 0.431782,-0.293016 0.716793,-0.769266 0.716793,-1.310899 z"
   id="path5" /></g>
<g
   id="Layer_3">
</g>
</svg>