<?xml version="1.0" encoding="UTF-8" standalone="no"?>
<svg
   xmlns:dc="http://purl.org/dc/elements/1.1/"
   xmlns:cc="http://creativecommons.org/ns#"
   xmlns:rdf="http://www.w3.org/1999/02/22-rdf-syntax-ns#"
   xmlns:svg="http://www.w3.org/2000/svg"
   xmlns="http://www.w3.org/2000/svg"
   xmlns:sodipodi="http://sodipodi.sourceforge.net/DTD/sodipodi-0.dtd"
   xmlns:inkscape="http://www.inkscape.org/namespaces/inkscape"
   version="1.1"
   id="Layer_1"
   x="0px"
   y="0px"
   width="44.878124"
   height="79.490128"
   viewBox="0 0 44.878124 79.490128"
   enable-background="new 0 0 100 100"
   xml:space="preserve"
   inkscape:version="0.48.3.1 r9886"
   sodipodi:docname="moreDisclosure.svg"><metadata
   id="metadata3070"><rdf:RDF><cc:Work
       rdf:about=""><dc:format>image/svg+xml</dc:format><dc:type
         rdf:resource="http://purl.org/dc/dcmitype/StillImage" /></cc:Work></rdf:RDF></metadata><defs
   id="defs3068" /><sodipodi:namedview
   pagecolor="#ffffff"
   bordercolor="#666666"
   borderopacity="1"
   objecttolerance="10"
   gridtolerance="10"
   guidetolerance="10"
   inkscape:pageopacity="0"
   inkscape:pageshadow="2"
   inkscape:window-width="640"
   inkscape:window-height="480"
   id="namedview3066"
   showgrid="false"
   inkscape:zoom="2.36"
   inkscape:cx="22.43825"
   inkscape:cy="39.744875"
   inkscape:window-x="0"
   inkscape:window-y="0"
   inkscape:window-maximized="0"
   inkscape:current-layer="Layer_1" />
<g
   id="g3058"
   transform="translate(-27.56175,-10.25475)">
	<path
   d="m 69.43,54.255 c -1.167,1.167 -3.076,1.167 -4.242,0 L 28.437,17.507 c -1.167,-1.167 -1.167,-3.076 0,-4.242 l 2.134,-2.135 c 1.167,-1.167 3.076,-1.167 4.243,0 l 36.751,36.748 c 1.166,1.167 1.167,3.075 0,4.242 l -2.135,2.135 z"
   id="path3060"
   inkscape:connector-curvature="0" />
</g>
<g
   id="g3062"
   transform="translate(-27.56175,-10.25475)">
	<path
   d="m 28.438,86.735 c -1.167,-1.167 -1.167,-3.076 0,-4.242 l 36.748,-36.75 c 1.167,-1.167 3.076,-1.167 4.242,0 l 2.135,2.135 c 1.166,1.167 1.167,3.076 0,4.242 L 34.814,88.87 c -1.167,1.166 -3.076,1.167 -4.242,0 l -2.134,-2.135 z"
   id="path3064"
   inkscape:connector-curvature="0" />
</g>
</svg>