<?xml version="1.0" encoding="UTF-8" standalone="no"?>
<svg
   xmlns:dc="http://purl.org/dc/elements/1.1/"
   xmlns:cc="http://creativecommons.org/ns#"
   xmlns:rdf="http://www.w3.org/1999/02/22-rdf-syntax-ns#"
   xmlns:svg="http://www.w3.org/2000/svg"
   xmlns="http://www.w3.org/2000/svg"
   xmlns:sodipodi="http://sodipodi.sourceforge.net/DTD/sodipodi-0.dtd"
   xmlns:inkscape="http://www.inkscape.org/namespaces/inkscape"
   version="1.0"
   id="Ebene_1"
   x="0px"
   y="0px"
   width="85.033997"
   height="94.431999"
   viewBox="0 0 85.033997 94.431999"
   enable-background="new 0 0 100 99.999"
   xml:space="preserve"
   inkscape:version="0.48.3.1 r9886"
   sodipodi:docname="notebook.svg"><metadata
   id="metadata3091"><rdf:RDF><cc:Work
       rdf:about=""><dc:format>image/svg+xml</dc:format><dc:type
         rdf:resource="http://purl.org/dc/dcmitype/StillImage" /></cc:Work></rdf:RDF></metadata><defs
   id="defs3089" /><sodipodi:namedview
   pagecolor="#ffffff"
   bordercolor="#666666"
   borderopacity="1"
   objecttolerance="10"
   gridtolerance="10"
   guidetolerance="10"
   inkscape:pageopacity="0"
   inkscape:pageshadow="2"
   inkscape:window-width="640"
   inkscape:window-height="480"
   id="namedview3087"
   showgrid="false"
   inkscape:zoom="2.3600236"
   inkscape:cx="45.007"
   inkscape:cy="46.1915"
   inkscape:window-x="0"
   inkscape:window-y="0"
   inkscape:window-maximized="0"
   inkscape:current-layer="Ebene_1" />
<g
   id="g3073"
   transform="translate(-4.993,-1.7590003)">
	<path
   d="M 78.556,1.759 H 24.939 c -6.337,0 -11.472,5.136 -11.472,11.472 v 1.359 c -4.68,0 -8.474,3.793 -8.474,8.474 0,3.605 2.255,6.676 5.431,7.901 -3.175,1.224 -5.431,4.295 -5.431,7.9 0,3.604 2.254,6.674 5.425,7.899 -3.171,1.225 -5.425,4.295 -5.425,7.899 0,3.684 2.355,6.809 5.637,7.977 -3.281,1.168 -5.637,4.293 -5.637,7.977 0,4.68 3.794,8.474 8.474,8.474 v 5.628 c 0,6.336 5.135,11.472 11.472,11.472 h 53.616 c 6.335,0 11.472,-5.136 11.472,-11.472 V 13.231 C 90.027,6.895 84.891,1.759 78.556,1.759 z M 13.468,19.243 v 7.641 c -2.105,0 -3.82,-1.714 -3.82,-3.82 -10e-4,-2.107 1.714,-3.821 3.82,-3.821 z m 0,15.802 v 7.641 c -2.105,0 -3.82,-1.714 -3.82,-3.821 0,-2.107 1.714,-3.82 3.82,-3.82 z m 0,15.798 v 7.641 c -2.105,0 -3.82,-1.714 -3.82,-3.82 0,-2.106 1.714,-3.821 3.82,-3.821 z M 9.647,70.617 c 0,-2.106 1.715,-3.82 3.82,-3.82 v 7.641 c -2.105,0 -3.82,-1.714 -3.82,-3.821 z m 71.777,14.102 c 0,1.582 -1.287,2.868 -2.868,2.868 H 24.939 c -1.581,0 -2.868,-1.287 -2.868,-2.868 V 13.231 c 0,-1.582 1.287,-2.868 2.868,-2.868 h 53.616 c 1.581,0 2.868,1.287 2.868,2.868 v 71.488 z"
   id="path3075"
   inkscape:connector-curvature="0" />
	<rect
   x="31.062"
   y="19.986"
   width="41.370998"
   height="4.6529999"
   id="rect3077" />
	<rect
   x="31.062"
   y="32.126999"
   width="41.370998"
   height="4.6529999"
   id="rect3079" />
	<rect
   x="31.062"
   y="44.269001"
   width="41.370998"
   height="4.6529999"
   id="rect3081" />
	<rect
   x="31.062"
   y="56.41"
   width="41.370998"
   height="4.6529999"
   id="rect3083" />
	<rect
   x="31.062"
   y="68.551003"
   width="41.370998"
   height="4.6529999"
   id="rect3085" />
</g>
</svg>