<?xml version="1.0" encoding="UTF-8" standalone="no"?>
<svg
   xmlns:dc="http://purl.org/dc/elements/1.1/"
   xmlns:cc="http://creativecommons.org/ns#"
   xmlns:rdf="http://www.w3.org/1999/02/22-rdf-syntax-ns#"
   xmlns:svg="http://www.w3.org/2000/svg"
   xmlns="http://www.w3.org/2000/svg"
   xmlns:sodipodi="http://sodipodi.sourceforge.net/DTD/sodipodi-0.dtd"
   xmlns:inkscape="http://www.inkscape.org/namespaces/inkscape"
   version="1.1"
   id="Layer_1"
   x="0px"
   y="0px"
   width="99.998001"
   height="99.987999"
   viewBox="0 0 99.998001 99.988"
   enable-background="new 0 0 100 99.988"
   xml:space="preserve"
   inkscape:version="0.48.3.1 r9886"
   sodipodi:docname="search.svg"><metadata
   id="metadata3102"><rdf:RDF><cc:Work
       rdf:about=""><dc:format>image/svg+xml</dc:format><dc:type
         rdf:resource="http://purl.org/dc/dcmitype/StillImage" /></cc:Work></rdf:RDF></metadata><defs
   id="defs3100" /><sodipodi:namedview
   pagecolor="#ffffff"
   bordercolor="#666666"
   borderopacity="1"
   objecttolerance="10"
   gridtolerance="10"
   guidetolerance="10"
   inkscape:pageopacity="0"
   inkscape:pageshadow="2"
   inkscape:window-width="640"
   inkscape:window-height="480"
   id="namedview3098"
   showgrid="false"
   inkscape:zoom="2.3602833"
   inkscape:cx="49.999999"
   inkscape:cy="49.993999"
   inkscape:window-x="0"
   inkscape:window-y="0"
   inkscape:window-maximized="0"
   inkscape:current-layer="Layer_1" />
<path
   d="m 61.911999,76.213 c -10.18,0 -19.749,-3.964 -26.945,-11.162 -7.197,-7.196 -11.162,-16.767 -11.162,-26.944 0,-10.179 3.965,-19.748 11.162,-26.945 7.195,-7.199 16.763,-11.162 26.944,-11.162 10.179,0 19.748,3.963 26.944,11.162 14.857001,14.855 14.857001,39.031 0.002,53.889 -7.197,7.199 -16.766,11.162 -26.945,11.162 l 0,0 z m 0,-66.286 c -7.528,0 -14.605,2.93 -19.926,8.252 -10.988,10.988 -10.988,28.867 0,39.855 5.323,5.321 12.398,8.252 19.927,8.252 7.527,0 14.604,-2.931 19.927,-8.252 5.322,-5.323 8.254,-12.401 8.254,-19.929 0,-7.528 -2.932,-14.603 -8.255,-19.927 -5.323,-5.32 -12.401,-8.251 -19.927,-8.251 l 0,0 z"
   id="path3094"
   inkscape:connector-curvature="0" />
<polygon
   points="35.67,72.06 7.742,99.988 0,92.248 27.928,64.319 "
   id="polygon3096" />
</svg>