<?xml version="1.0" encoding="UTF-8" standalone="no"?>
<svg
   xmlns:dc="http://purl.org/dc/elements/1.1/"
   xmlns:cc="http://creativecommons.org/ns#"
   xmlns:rdf="http://www.w3.org/1999/02/22-rdf-syntax-ns#"
   xmlns:svg="http://www.w3.org/2000/svg"
   xmlns="http://www.w3.org/2000/svg"
   xmlns:sodipodi="http://sodipodi.sourceforge.net/DTD/sodipodi-0.dtd"
   xmlns:inkscape="http://www.inkscape.org/namespaces/inkscape"
   version="1.1"
   x="0px"
   y="0px"
   width="100"
   height="100"
   viewBox="0 0 100 100"
   enable-background="new 0 0 100 100"
   xml:space="preserve"
   id="svg3104"
   inkscape:version="0.48.3.1 r9886"
   sodipodi:docname="settings.svg"><metadata
   id="metadata3116"><rdf:RDF><cc:Work
       rdf:about=""><dc:format>image/svg+xml</dc:format><dc:type
         rdf:resource="http://purl.org/dc/dcmitype/StillImage" /></cc:Work></rdf:RDF></metadata><defs
   id="defs3114" /><sodipodi:namedview
   pagecolor="#ffffff"
   bordercolor="#666666"
   borderopacity="1"
   objecttolerance="10"
   gridtolerance="10"
   guidetolerance="10"
   inkscape:pageopacity="0"
   inkscape:pageshadow="2"
   inkscape:window-width="640"
   inkscape:window-height="480"
   id="namedview3112"
   showgrid="false"
   inkscape:zoom="2.36"
   inkscape:cx="50"
   inkscape:cy="50"
   inkscape:window-x="0"
   inkscape:window-y="0"
   inkscape:window-maximized="0"
   inkscape:current-layer="svg3104" />
<g
   id="Captions">
</g>
<g
   id="Your_Icon">
	<path
   d="m 95.678,38.018 -6.331,-2.251 c -0.684,-0.243 -1.234,-0.766 -1.511,-1.434 -0.004,-0.007 -0.007,-0.017 -0.011,-0.024 -0.269,-0.666 -0.245,-1.418 0.063,-2.068 l 2.883,-6.066 c 1.182,-2.484 0.672,-5.442 -1.273,-7.387 L 81.213,10.503 C 79.27,8.559 76.313,8.048 73.826,9.23 l -6.066,2.883 c -0.649,0.309 -1.429,0.328 -2.089,0.055 C 65.66,12.163 65.65,12.16 65.64,12.155 64.986,11.875 64.474,11.33 64.235,10.657 L 61.984,4.325 C 61.062,1.731 58.608,0 55.858,0 H 44.142 c -2.75,0 -5.203,1.731 -6.124,4.322 l -2.251,6.329 C 35.524,11.336 35,11.887 34.33,12.165 33.662,12.441 32.895,12.422 32.24,12.111 L 26.174,9.228 C 23.692,8.047 20.732,8.556 18.787,10.501 l -8.285,8.285 C 8.557,20.73 8.046,23.688 9.228,26.173 l 2.884,6.066 c 0.311,0.651 0.332,1.407 0.061,2.074 -0.002,0.006 -0.005,0.013 -0.007,0.018 -0.277,0.669 -0.828,1.191 -1.512,1.435 L 4.323,38.017 C 1.731,38.938 0,41.392 0,44.142 v 11.717 c 0,2.751 1.731,5.203 4.322,6.124 l 6.331,2.251 c 0.659,0.235 1.194,0.729 1.48,1.361 0.02,0.05 0.04,0.1 0.061,0.148 0.247,0.653 0.218,1.384 -0.083,2.017 l -2.884,6.066 c -1.181,2.484 -0.671,5.442 1.274,7.387 l 8.285,8.285 c 1.943,1.944 4.902,2.455 7.388,1.274 l 6.062,-2.883 c 0.644,-0.307 1.413,-0.329 2.072,-0.064 0.009,0.004 0.019,0.008 0.025,0.012 0.667,0.275 1.189,0.826 1.432,1.508 l 2.251,6.332 c 0.922,2.592 3.375,4.323 6.125,4.323 h 11.717 c 2.75,0 5.202,-1.73 6.124,-4.321 l 2.238,-6.294 c 0.243,-0.683 0.756,-1.238 1.415,-1.534 0.026,-0.009 0.052,-0.021 0.078,-0.031 0.638,-0.265 1.391,-0.242 2.009,0.051 l 6.104,2.902 c 2.483,1.182 5.442,0.672 7.387,-1.274 l 8.285,-8.285 c 1.945,-1.944 2.456,-4.903 1.273,-7.387 l -2.884,-6.065 c -0.312,-0.658 -0.332,-1.419 -0.055,-2.087 0.003,-0.009 0.007,-0.017 0.009,-0.024 0.28,-0.658 0.829,-1.175 1.509,-1.417 l 6.327,-2.25 C 98.27,61.062 100,58.609 100,55.858 V 44.142 c 0,-2.75 -1.731,-5.204 -4.322,-6.124 z M 87,51.271 84.996,51.983 c -4.146,1.474 -7.487,4.647 -9.171,8.707 -0.009,0.021 -0.018,0.043 -0.026,0.065 -1.657,4.046 -1.532,8.627 0.348,12.584 l 0.915,1.926 -1.796,1.796 -1.966,-0.933 c -3.865,-1.835 -8.467,-1.973 -12.425,-0.375 -0.054,0.021 -0.107,0.042 -0.161,0.064 -4.078,1.695 -7.266,5.055 -8.742,9.214 L 51.271,87 H 48.729 L 48.014,84.989 C 46.543,80.857 43.384,77.524 39.341,75.84 39.33,75.835 39.32,75.83 39.309,75.826 35.287,74.156 30.592,74.277 26.654,76.148 l -1.92,0.913 -1.797,-1.797 0.914,-1.923 c 1.89,-3.976 2.008,-8.586 0.323,-12.65 -0.007,-0.018 -0.015,-0.034 -0.021,-0.052 -1.689,-4.035 -5.02,-7.188 -9.145,-8.654 L 13,51.271 V 48.73 l 2.01,-0.715 c 4.125,-1.467 7.455,-4.62 9.144,-8.655 0.007,-0.017 0.014,-0.033 0.021,-0.05 1.685,-4.065 1.567,-8.678 -0.323,-12.652 l -0.914,-1.922 1.798,-1.798 1.923,0.914 c 3.936,1.87 8.629,1.991 12.651,0.322 4.058,-1.682 7.23,-5.021 8.705,-9.165 L 48.729,13 h 2.541 l 0.715,2.011 c 1.475,4.143 4.646,7.482 8.705,9.163 0.013,0.006 0.026,0.011 0.04,0.017 4.01,1.65 8.69,1.525 12.612,-0.339 l 1.922,-0.914 1.798,1.798 -0.914,1.923 c -1.89,3.976 -2.008,8.587 -0.323,12.65 h 10e-4 c 0.005,0.013 0.01,0.025 0.016,0.037 1.687,4.042 5.02,7.201 9.149,8.669 L 87,48.729 v 2.542 z"
   id="path3108"
   inkscape:connector-curvature="0"
   style="fill:#000000" />
	<path
   d="M 50,27.546 C 37.619,27.546 27.546,37.619 27.546,50 27.546,62.381 37.619,72.454 50,72.454 62.381,72.454 72.454,62.381 72.454,50 72.454,37.619 62.381,27.546 50,27.546 z m 0,31.908 c -5.213,0 -9.454,-4.241 -9.454,-9.454 0,-5.213 4.241,-9.454 9.454,-9.454 5.213,0 9.454,4.241 9.454,9.454 0,5.213 -4.241,9.454 -9.454,9.454 z"
   id="path3110"
   inkscape:connector-curvature="0"
   style="fill:#000000" />
</g>
</svg>