<svg xmlns="http://www.w3.org/2000/svg" xmlns:xlink="http://www.w3.org/1999/xlink" version="1.1" x="0px" y="0px" width="100px" height="100px" viewBox="0 0 100 100" enable-background="new 0 0 100 100" xml:space="preserve">
<g id="Captions">
</g>
<g id="Your_Icon">
	<path d="M42.871,55c-1.016,0-1.886-0.771-1.988-1.805c-0.108-1.098,0.694-2.078,1.794-2.186l23.29-2.299   c0.045-0.006,0.09-0.008,0.135-0.01c0.764-0.037,2.574-0.328,2.532-2.225c-0.015-0.729-0.267-1.045-0.455-1.221   c-0.705-0.658-2.141-0.748-2.467-0.723l-34.945,0.174c-0.003,0-0.007,0-0.01,0c-1.1,0-1.995-0.889-2-1.99   c-0.005-1.105,0.886-2.004,1.99-2.01l34.857-0.172c0.25-0.016,3.268-0.105,5.304,1.797c1.096,1.021,1.691,2.426,1.725,4.059   c0.099,4.439-3.706,6.195-6.334,6.307L43.07,54.99C43.003,54.996,42.937,55,42.871,55z"/>
	<g>
		<g>
			<path d="M49.706,44c-1.104,0-2-0.895-2-2V19.479c0-1.105,0.896-2,2-2s2,0.895,2,2V42C51.706,43.105,50.811,44,49.706,44z"/>
		</g>
		<g>
			<path d="M90,82.377c-0.34,0-0.68-0.086-0.985-0.26L52.86,61.646c-0.961-0.545-1.299-1.766-0.755-2.727     c0.545-0.961,1.764-1.301,2.726-0.754L88,76.947v-33.59L59.379,27.229c-0.963-0.541-1.303-1.762-0.761-2.723     c0.541-0.963,1.763-1.305,2.724-0.762l29.64,16.701C91.61,40.801,92,41.467,92,42.188v38.189c0,0.713-0.378,1.369-0.993,1.729     C90.696,82.287,90.348,82.377,90,82.377z"/>
		</g>
	</g>
	<g>
		<path d="M20.735,81.311c-1.456,0-3.132-0.334-5.041-1.184c-6.52-2.926-7.625-9.234-7.668-9.502c-0.179-1.09,0.56-2.119,1.65-2.297    c1.085-0.178,2.118,0.559,2.297,1.648c0.03,0.17,0.846,4.477,5.354,6.498c3.526,1.572,5.339,0.635,6.397-0.207    c0.864-0.689,2.122-0.543,2.81,0.32c0.688,0.865,0.544,2.123-0.321,2.811C24.97,80.387,23.159,81.311,20.735,81.311z"/>
	</g>
	<g>
		<path d="M24.039,64.719c-0.946,0-1.787-0.674-1.964-1.639c-0.2-1.086,0.519-2.129,1.604-2.328c0.15-0.031,4.088-0.881,5.806-5.51    c2.092-5.604-2.031-10.941-2.073-10.994c-0.579-0.736-0.574-1.781,0.018-2.508c1.892-2.316,2.259-4.533,2.235-5.984    c-0.012-0.525-0.25-3.346-3.776-6.225c-1.687-1.383-2.381-1.521-3.137-1.25c0.148,0.549,0.514,1.402,0.755,1.965    c0.587,1.369,1.193,2.785,1.155,4.109c-0.062,2.08-0.191,6.404-4.005,11.637c-3.713,5.1-8.306,6.455-8.5,6.51    c-1.063,0.301-2.169-0.314-2.471-1.375c-0.302-1.059,0.309-2.16,1.363-2.469c0.086-0.025,3.534-1.119,6.375-5.021    c3.086-4.232,3.183-7.467,3.24-9.398c0.013-0.441-0.497-1.629-0.833-2.416c-0.87-2.031-2.326-5.428,0.631-6.896    c3.173-1.562,5.477-0.527,7.96,1.51c4.759,3.887,5.215,8.057,5.242,9.244c0.026,1.537-0.257,4.375-2.237,7.371    c1.462,2.377,3.996,7.723,1.806,13.588c-2.528,6.812-8.574,8-8.83,8.047C24.281,64.707,24.159,64.719,24.039,64.719z"/>
	</g>
	<g>
		<path d="M45.416,70.979c-3.97,0-8.533-1.039-10.274-2.963c-1.49-1.648-2.16-5.039-0.783-7.461    c0.777-1.365,2.835-3.502,7.901-2.486c1.083,0.219,1.784,1.273,1.566,2.355c-0.218,1.082-1.267,1.781-2.355,1.566    c-0.896-0.18-3.046-0.488-3.635,0.543c-0.504,0.887-0.069,2.422,0.272,2.799c1.075,1.188,7.982,2.342,10.797,1.178    c1.102-0.451,2.489-1.293,2.85-2.73c0.46-1.832-0.679-4.48-3.294-7.66c-0.702-0.854-0.579-2.113,0.274-2.816    c0.854-0.699,2.113-0.578,2.815,0.275c3.504,4.26,4.878,8.02,4.084,11.176c-0.6,2.385-2.448,4.322-5.207,5.455    C49.169,70.729,47.364,70.979,45.416,70.979z"/>
	</g>
	<g>
		<path d="M38.603,77.508c-3.449,0-7.14-1.105-8.808-2.947c-1.517-1.682-2.246-5.439-0.872-8.15    c0.704-1.389,2.555-3.654,7.051-3.193c1.099,0.111,1.899,1.092,1.788,2.191s-1.101,1.912-2.192,1.787    c-2.433-0.244-2.917,0.705-3.077,1.02c-0.663,1.299-0.081,3.271,0.269,3.664c1.242,1.373,6.17,2.234,8.778,1.16    c1.003-0.412,1.713-2.352,1.896-4.053c0.118-1.098,1.101-1.895,2.203-1.773c1.098,0.117,1.893,1.104,1.775,2.201    c-0.146,1.359-0.892,5.9-4.35,7.324C41.786,77.264,40.221,77.508,38.603,77.508z"/>
	</g>
	<g>
		<path d="M31.938,82.521c-2.889,0-5.951-0.939-7.388-2.52c-1.312-1.451-1.945-4.693-0.76-7.029    c0.615-1.213,2.225-3.186,6.089-2.793c1.099,0.113,1.898,1.096,1.785,2.195c-0.113,1.098-1.096,1.908-2.194,1.783    c-1.108-0.111-1.81,0.082-2.088,0.578c-0.449,0.803-0.13,2.234,0.145,2.594c0.813,0.895,4.653,1.666,6.683,0.83    c0.584-0.238,1.154-1.541,1.299-2.965c0.112-1.098,1.088-1.912,2.193-1.785c1.099,0.111,1.898,1.094,1.787,2.191    c-0.118,1.156-0.737,5.02-3.76,6.26C34.629,82.312,33.303,82.521,31.938,82.521z"/>
	</g>
	<g>
		<path fill="#000000" stroke="#D9272E" stroke-width="4" stroke-linecap="round" stroke-linejoin="round" stroke-miterlimit="10" d="    M52.4,59.086"/>
	</g>
</g>
<g id="Layer_3">
</g>
</svg>